<svg width="28" height="28" viewBox="0 0 28 28" fill="none" xmlns="http://www.w3.org/2000/svg">
<g id="img">
<g id="icon">
<path d="M9.33331 12.2499C10.2998 12.2499 11.0833 11.4664 11.0833 10.4999C11.0833 9.53342 10.2998 8.74992 9.33331 8.74992C8.36681 8.74992 7.58331 9.53342 7.58331 10.4999C7.58331 11.4664 8.36681 12.2499 9.33331 12.2499Z" fill="#5C59E8"/>
<path fillRule="evenodd" clipRule="evenodd" d="M6.70831 3.20825C4.77532 3.20825 3.20831 4.77526 3.20831 6.70825V21.2916C3.20831 23.2246 4.77532 24.7916 6.70831 24.7916H21.2916C23.2246 24.7916 24.7916 23.2246 24.7916 21.2916V6.70825C24.7916 4.77525 23.2246 3.20825 21.2916 3.20825H6.70831ZM21.2916 5.54159H6.70831C6.06398 5.54159 5.54165 6.06392 5.54165 6.70825V15.7711L8.45688 13.9771C8.65088 13.8577 8.89664 13.8622 9.08618 13.9885L12.1975 16.0628L17.1419 12.2171C17.3525 12.0533 17.6475 12.0533 17.8581 12.2171L22.4583 15.795V6.70825C22.4583 6.06392 21.936 5.54159 21.2916 5.54159ZM5.54165 21.2916V18.5108L8.72483 16.552L12.3025 18.9371L17.5 14.8946L22.4583 18.751V21.2916C22.4583 21.9359 21.936 22.4583 21.2916 22.4583H6.70831C6.06398 22.4583 5.54165 21.9359 5.54165 21.2916Z" fill="#5C59E8"/>
</g>
</g>
</svg>
