<svg width="20" height="20" viewBox="0 0 20 20" fill="none" xmlns="http://www.w3.org/2000/svg">
<g id="trash">
<g id="icon">
<path d="M8.33329 8.12508C8.79353 8.12508 9.16663 8.49818 9.16663 8.95842V13.9584C9.16663 14.4187 8.79353 14.7917 8.33329 14.7917C7.87306 14.7917 7.49996 14.4187 7.49996 13.9584V8.95842C7.49996 8.49818 7.87306 8.12508 8.33329 8.12508Z" fill="#667085"/>
<path d="M12.5 8.95842C12.5 8.49818 12.1269 8.12508 11.6666 8.12508C11.2064 8.12508 10.8333 8.49818 10.8333 8.95842V13.9584C10.8333 14.4187 11.2064 14.7917 11.6666 14.7917C12.1269 14.7917 12.5 14.4187 12.5 13.9584V8.95842Z" fill="#667085"/>
<path fillRule="evenodd" clipRule="evenodd" d="M15 5.00008V4.16675C15 2.78604 13.8807 1.66675 12.5 1.66675H7.49996C6.11925 1.66675 4.99996 2.78604 4.99996 4.16675V5.00008H3.74996C3.28972 5.00008 2.91663 5.37318 2.91663 5.83341C2.91663 6.29365 3.28972 6.66675 3.74996 6.66675H4.16663V15.8334C4.16663 17.2141 5.28591 18.3334 6.66663 18.3334H13.3333C14.714 18.3334 15.8333 17.2141 15.8333 15.8334V6.66675H16.25C16.7102 6.66675 17.0833 6.29365 17.0833 5.83341C17.0833 5.37318 16.7102 5.00008 16.25 5.00008H15ZM12.5 3.33341H7.49996C7.03972 3.33341 6.66663 3.70651 6.66663 4.16675V5.00008H13.3333V4.16675C13.3333 3.70651 12.9602 3.33341 12.5 3.33341ZM14.1666 6.66675H5.83329V15.8334C5.83329 16.2937 6.20639 16.6667 6.66663 16.6667H13.3333C13.7935 16.6667 14.1666 16.2937 14.1666 15.8334V6.66675Z" fill="#667085"/>
</g>
</g>
</svg>
